<svg width="460" height="360" viewBox="0 0 460 360" fill="none" xmlns="http://www.w3.org/2000/svg">
<rect width="460" height="360" fill="#EE5757"/>
<path d="M360 230.059H100V248.529H118.571V267H137.143V248.529H183.571V267H202.143V248.529H248.571V267H267.143V248.529H313.571V267H332.143V248.529H360V230.059Z" fill="#141414"/>
<path d="M127.857 110V211.588H137.143C137.143 216.487 139.099 221.185 142.582 224.649C146.065 228.113 150.789 230.059 155.714 230.059C160.64 230.059 165.363 228.113 168.846 224.649C172.329 221.185 174.286 216.487 174.286 211.588H285.714C285.714 216.487 287.671 221.185 291.154 224.649C294.637 228.113 299.36 230.059 304.286 230.059C309.211 230.059 313.935 228.113 317.418 224.649C320.901 221.185 322.857 216.487 322.857 211.588H332.143V110H127.857ZM313.571 193.118H295V137.706H276.429V193.118H257.857V137.706H239.286V193.118H220.714V137.706H202.143V193.118H183.571V137.706H165V193.118H146.429V128.471H313.571V193.118Z" fill="#141414"/>
</svg>
